<?xml version="1.0" standalone="no"?>
<!DOCTYPE svg PUBLIC "-//W3C//DTD SVG 20010904//EN"
 "http://www.w3.org/TR/2001/REC-SVG-20010904/DTD/svg10.dtd">
<svg version="1.0" xmlns="http://www.w3.org/2000/svg"
 width="630.000000pt" height="630.000000pt" viewBox="0 0 630.000000 630.000000"
 preserveAspectRatio="xMidYMid meet">
<metadata>
Created by potrace 1.11, written by Peter Selinger 2001-2013
</metadata>
<g transform="translate(0.000000,630.000000) scale(0.100000,-0.100000)"
fill="#000000" stroke="none">
<path d="M0 3150 l0 -3150 3150 0 3150 0 -1 1433 c-1 1423 -1 1431 -19 1312
-61 -400 -224 -826 -447 -1164 -134 -205 -221 -313 -386 -480 -156 -157 -305
-281 -487 -403 -507 -338 -1076 -518 -1695 -535 -961 -27 -1866 366 -2492
1082 -193 220 -354 476 -477 755 -26 58 -51 114 -56 125 -11 24 -82 247 -104
325 -76 278 -114 704 -87 975 44 442 157 822 352 1180 64 118 200 334 231 367
7 7 26 31 42 53 62 83 144 174 275 304 358 353 804 616 1300 765 273 82 534
124 836 133 704 21 1374 -180 1949 -585 210 -148 435 -356 586 -542 25 -30 47
-57 50 -60 14 -13 115 -156 174 -246 219 -336 388 -787 440 -1179 12 -87 14
80 15 1293 l1 1392 -3150 0 -3150 0 0 -3150z"/>
<path d="M2960 5771 c-660 -55 -1301 -353 -1760 -819 -396 -402 -633 -867
-724 -1417 -83 -504 2 -1042 241 -1520 101 -202 272 -448 425 -609 l84 -89 92
22 92 23 0 1309 0 1308 83 45 c45 25 97 56 116 71 19 14 39 25 45 25 5 0 17 6
25 14 9 7 43 28 76 46 33 18 74 42 90 54 17 12 70 45 119 72 49 27 110 61 135
76 25 15 49 27 53 27 4 1 8 -657 8 -1461 0 -804 1 -1462 3 -1463 1 -1 54 4
117 11 100 11 366 29 540 37 l55 2 3 1213 2 1212 -46 28 c-26 15 -74 45 -108
66 -33 21 -90 55 -126 74 -36 19 -67 38 -70 42 -3 3 -31 21 -62 39 l-58 32 0
343 0 342 86 63 c47 35 91 69 97 76 7 6 95 74 197 150 102 76 187 141 190 145
3 3 39 32 80 63 l75 58 3 -1970 2 -1971 125 0 125 0 0 600 0 601 48 20 c26 12
97 39 157 60 61 22 145 54 188 71 l77 32 0 622 c0 343 4 625 8 628 5 3 38 -14
75 -37 158 -100 320 -200 424 -264 l113 -68 0 -462 c0 -281 -4 -463 -9 -463
-6 0 -45 14 -88 31 -43 17 -107 41 -143 54 -36 12 -73 26 -82 30 -17 7 -18
-33 -18 -748 l0 -754 113 -12 c121 -13 515 -76 565 -90 17 -5 33 -7 36 -3 3 3
6 194 6 424 0 395 1 419 18 414 22 -6 209 -47 244 -53 l27 -5 0 -418 c-1 -231
2 -424 6 -429 13 -22 33 -9 102 62 353 366 596 850 684 1367 30 179 37 508 15
691 -73 582 -326 1099 -746 1520 -350 352 -791 603 -1281 728 -222 57 -403 81
-650 85 -123 3 -267 1 -319 -3z"/>
<path d="M2905 1374 c-326 -7 -859 -35 -1100 -59 -146 -14 -360 -37 -432 -46
-93 -12 -93 -5 7 -90 394 -331 843 -534 1385 -626 147 -25 183 -27 435 -27
286 -1 360 6 602 55 429 86 875 298 1210 576 51 42 96 82 100 87 9 14 -104 29
-552 71 -435 41 -1189 68 -1655 59z"/>
</g>
</svg>
